<svg id="settings_black_24dp" xmlns="http://www.w3.org/2000/svg" width="41" height="41" viewBox="0 0 41 41">
  <rect id="Прямоугольник_16" data-name="Прямоугольник 16" width="41" height="41" fill="none"/>
  <path id="Контур_7" data-name="Контур 7" d="M32.021,19.27c0-.4-.017-.777-.052-1.174l3.212-2.435a1.737,1.737,0,0,0,.449-2.245L32.4,7.837a1.7,1.7,0,0,0-2.159-.725L26.529,8.683a13.1,13.1,0,0,0-2.021-1.174l-.5-3.989A1.732,1.732,0,0,0,22.3,2H15.857A1.736,1.736,0,0,0,14.13,3.52l-.5,3.989a13.1,13.1,0,0,0-2.021,1.174L7.9,7.112a1.7,1.7,0,0,0-2.159.725l-3.229,5.6a1.741,1.741,0,0,0,.449,2.245l3.212,2.435c-.035.38-.052.76-.052,1.157s.017.777.052,1.174L2.956,22.879a1.737,1.737,0,0,0-.449,2.245L5.736,30.7a1.7,1.7,0,0,0,2.159.725l3.713-1.572a13.1,13.1,0,0,0,2.021,1.174l.5,3.989a1.732,1.732,0,0,0,1.71,1.52h6.442a1.732,1.732,0,0,0,1.71-1.52l.5-3.989a13.1,13.1,0,0,0,2.021-1.174l3.713,1.572a1.7,1.7,0,0,0,2.159-.725l3.229-5.578a1.741,1.741,0,0,0-.449-2.245l-3.212-2.435A8.928,8.928,0,0,0,32.021,19.27ZM19.138,25.314a6.044,6.044,0,1,1,6.044-6.044A6.051,6.051,0,0,1,19.138,25.314Z" transform="translate(1.207 1.006)" fill="#fff"/>
</svg>
