<svg xmlns="http://www.w3.org/2000/svg" width="30" height="30" viewBox="0 0 30 30"><defs><style>.a{fill:#fff;}</style></defs><path class="a" d="M18,3A15,15,0,1,0,33,18,15.044,15.044,0,0,0,18,3Zm5.914,22.5c-.275,0-.413-.138-.687-.275A14.539,14.539,0,0,0,15.8,23.3a24.1,24.1,0,0,0-4.538.55,5.955,5.955,0,0,0-.687.138.94.94,0,0,1-.963-.963c0-.55.275-.963.825-.963a24.106,24.106,0,0,1,5.5-.687,17.459,17.459,0,0,1,8.525,2.2c.275.275.55.413.55.962C24.737,25.225,24.325,25.5,23.914,25.5Zm1.511-3.849a1.954,1.954,0,0,1-.825-.275,17.274,17.274,0,0,0-9.212-2.338,21.8,21.8,0,0,0-4.675.55,1.24,1.24,0,0,1-.687.138,1.086,1.086,0,0,1-1.1-1.1c0-.687.275-.962.963-1.239a21.277,21.277,0,0,1,5.639-.825,20.438,20.438,0,0,1,10.451,2.75,1.4,1.4,0,0,1,.687,1.1C26.525,21.1,26.114,21.651,25.425,21.651Zm1.788-4.4c-.275,0-.413-.138-.825-.275A23.136,23.136,0,0,0,15.8,14.5a26.572,26.572,0,0,0-5.776.687c-.275,0-.413.138-.825.138-.825.139-1.375-.55-1.375-1.374a1.26,1.26,0,0,1,.962-1.375A28.784,28.784,0,0,1,15.8,11.75,27,27,0,0,1,27.9,14.5a1.615,1.615,0,0,1,.825,1.375A1.5,1.5,0,0,1,27.213,17.25Z" transform="translate(-3 -3)"/></svg>