<svg xmlns="http://www.w3.org/2000/svg" width="30" height="30" viewBox="0 0 30 30"><defs><style>.a{fill:#fff;}</style></defs><g transform="translate(-1431 -819)"><path class="a" d="M1438.405,867.289a11.221,11.221,0,0,1-1.908-14.277h-4.248c-.023.053-.047.105-.07.158a15.014,15.014,0,0,0,6.226,18.777Z" transform="translate(0 -25.016)"/><path class="a" d="M1520.161,841.325a14.913,14.913,0,0,0-2.554-4.063l-2.105,3.4a11.231,11.231,0,0,1-4.268,16.625l2.438,2.971a15.013,15.013,0,0,0,6.49-18.928Z" transform="translate(-60.341 -13.204)"/><path class="a" d="M1440.459,819h21.379l-3.88,6h-5.582v19.595L1456.1,849h-11.323V825h-9.026Z" transform="translate(-3.823)"/></g></svg>