<svg xmlns="http://www.w3.org/2000/svg" width="26" height="30" viewBox="0 0 26 30"><defs><style>.a{fill:#fff;}</style></defs><path class="a" d="M13.136,17.47H11.093a.443.443,0,0,1-.312-.122.35.35,0,0,1-.107-.289l.18-1.833a.4.4,0,0,1,.419-.344h2.042a.445.445,0,0,1,.312.123.347.347,0,0,1,.107.289l-.18,1.833A.4.4,0,0,1,13.136,17.47Zm.327-3.588h-2.08a.408.408,0,0,1-.416-.4l.566-6.192a.41.41,0,0,1,.416-.351h2.08a.408.408,0,0,1,.416.4l-.583,6.2A.41.41,0,0,1,13.463,13.882ZM25.7,6.662a1.246,1.246,0,0,1,.3.924l-.813,9.2a1.249,1.249,0,0,1-.38.793l-6.65,6.388a1.276,1.276,0,0,1-.886.353H10.189L3.957,30l.483-5.685H1.27a1.277,1.277,0,0,1-.936-.407,1.247,1.247,0,0,1-.329-.957L1.939,1.127A1.264,1.264,0,0,1,3.2,0H19.342a1.276,1.276,0,0,1,.965.44ZM20.767,15.03l.517-5.678a1.246,1.246,0,0,0-.327-.917l-3.04-3.472a1.276,1.276,0,0,0-.957-.432H7.384A1.264,1.264,0,0,0,6.119,5.659L4.979,18.434a1.261,1.261,0,0,0,.334.953,1.293,1.293,0,0,0,.931.411H15.66a1.278,1.278,0,0,0,.878-.346l3.849-3.626A1.248,1.248,0,0,0,20.767,15.03Z" transform="translate(0)"/></svg>