<svg xmlns="http://www.w3.org/2000/svg" width="30" height="30" viewBox="0 0 30 30"><defs><style>.a{fill:#fff;}</style></defs><g transform="translate(-4 -4)"><path class="a" d="M9.938,8.432V29.568L6.875,34h21.74L33,28.545H17.145V4H7.055Z" transform="translate(0 0)"/><path class="a" d="M8.091,23.687a11.194,11.194,0,0,1,0-10.709V8.962L7.919,8.7A13.807,13.807,0,0,0,7.9,27.947l.194-.283ZM20.364,6.67A11.956,11.956,0,0,1,31.273,18.332,11.315,11.315,0,0,1,29.2,24.854h3.146A13.743,13.743,0,0,0,34,18.332c0-7.471-6-13.62-13.636-14.281Z" transform="translate(0)"/></g></svg>