<svg xmlns="http://www.w3.org/2000/svg" width="30" height="30" viewBox="0 0 30 30"><defs><style>.a{fill:#fff;}</style></defs><path class="a" d="M1644.081,64.224s4.371-3.833,6.114-4.105c.826-.129,1.489-.331,1.8.517,1.89,5.14,2.271,5.172,2.271,5.172l8.472,1.326a.4.4,0,0,1,.288.534l-2.1,6.073a.7.7,0,0,1-.622.486c-1.816.063-8.472.377-9.849,1.6-3.173,2.824-2.359,7.076-.886,8.47,2.869,2.715,4.489.324,4.9-.162a2.439,2.439,0,0,0,.148-3.233,1.358,1.358,0,0,0-2.068.032.941.941,0,0,0,.148,1.035c.24.291.35.268.413.4.328.7-.312,1.037-.886.922a2.022,2.022,0,0,1-1.624-2.036,3.279,3.279,0,0,1,3-3.541,4.233,4.233,0,0,1,4.445,3.864,7.42,7.42,0,0,1-4.933,8.022,10.248,10.248,0,0,1-11.282-4.045c-2.507-3.33-2.317-10.07-2.317-10.07l-3.854.126a.739.739,0,0,1-.731-.651l-1.875-11.672a.511.511,0,0,1,.539-.618Z" transform="translate(-1633.051 -60)"/></svg>