<svg xmlns="http://www.w3.org/2000/svg" width="30.001" height="30" viewBox="0 0 30.001 30"><defs><style>.a{fill:#fff;}</style></defs><g transform="translate(-401.433 -5)"><path class="a" d="M407.457,7.878A15.246,15.246,0,0,1,415.065,5V9.53a10.407,10.407,0,0,0-4.905,1.977,10.5,10.5,0,0,0-3.654,11.963,10.439,10.439,0,0,0,4.055,5.206,10.617,10.617,0,0,0,6.357,1.777,10.47,10.47,0,0,0,9.686-7.909,10.713,10.713,0,0,0,.125-4.63l3.8-3.053v-.025a15.2,15.2,0,0,1,.451,8.835,14.934,14.934,0,0,1-5.056,7.934,15.114,15.114,0,0,1-8.785,3.379A15.012,15.012,0,0,1,402.3,25.022a15.122,15.122,0,0,1-.225-9.411A14.829,14.829,0,0,1,407.457,7.878Z"/><path class="a" d="M457.243,10.605l.025.05-2.553,4.03a10.685,10.685,0,0,0-3.6-3.329v9.185a5.115,5.115,0,1,1-2.253-4.23V5.8A15.119,15.119,0,0,1,457.243,10.605Z" transform="translate(-29.589 -0.6)"/></g></svg>